<svg width="180" height="180" viewBox="0 0 180 180" fill="none" xmlns="http://www.w3.org/2000/svg">
  <rect width="180" height="180" rx="44" fill="#FFFEFA"/>
  <circle cx="90" cy="90" r="76" fill="#FFFFFF" stroke="#D7B64A" stroke-width="5"/>
  <path d="M72 148C55 119 58 72 98 28" stroke="#D7B64A" stroke-width="6" stroke-linecap="round"/>
  <path d="M98 28C95 48 102 62 119 70C124 49 116 35 98 28Z" stroke="#6AA332" stroke-width="5" stroke-linejoin="round"/>
  <path d="M66 70C40 67 20 78 8 96C35 101 56 92 66 70Z" stroke="#6AA332" stroke-width="5" stroke-linejoin="round"/>
  <path d="M54 80C70 75 86 78 98 88" stroke="#6AA332" stroke-width="4" stroke-linecap="round"/>
  <path d="M104 85C123 77 142 81 160 96C137 103 119 99 104 85Z" stroke="#6AA332" stroke-width="5" stroke-linejoin="round"/>
  <path d="M118 86C130 87 141 91 152 99" stroke="#6AA332" stroke-width="4" stroke-linecap="round"/>
  <path d="M82 128C60 124 42 131 28 146C51 153 69 147 82 128Z" stroke="#6AA332" stroke-width="5" stroke-linejoin="round"/>
  <path d="M48 145C61 140 74 140 86 147" stroke="#6AA332" stroke-width="4" stroke-linecap="round"/>
  <path d="M92 116H110L114 100L119 132L124 116H142" stroke="#D7B64A" stroke-width="4" stroke-linecap="round" stroke-linejoin="round"/>
</svg>
