<svg xmlns="http://www.w3.org/2000/svg" viewBox="0 0 520 220" role="img" aria-labelledby="title desc">
  <title id="title">Meridions Life</title>
  <desc id="desc">Logo da Meridions Life Medicina Tradicional Chinesa</desc>
  <rect width="520" height="220" fill="white"/>
  <g fill="none" stroke-linecap="round" stroke-linejoin="round">
    <path d="M156 186C115 141 122 72 187 21" stroke="#d7b64a" stroke-width="5"/>
    <path d="M188 22c-3 27 4 44 27 56 6-25-4-44-27-56Z" stroke="#6aa332" stroke-width="4"/>
    <path d="M118 67c-39-4-70 10-95 35 43 9 76 0 95-35Z" stroke="#6aa332" stroke-width="4"/>
    <path d="M102 78c26-7 48-3 65 13" stroke="#6aa332" stroke-width="3"/>
    <path d="M210 91c24-10 50-5 74 17-31 8-55 3-74-17Z" stroke="#6aa332" stroke-width="4"/>
    <path d="M229 92c13 1 27 7 41 18" stroke="#6aa332" stroke-width="3"/>
    <path d="M160 167c-31-8-59-1-85 21 34 10 62 4 85-21Z" stroke="#6aa332" stroke-width="4"/>
    <path d="M92 189c21-6 43-4 65 7" stroke="#6aa332" stroke-width="3"/>
    <path d="M188 178c-28 0-51 12-70 38 32 4 56-7 70-38Z" stroke="#6aa332" stroke-width="4"/>
    <path d="M136 207c15-9 30-14 47-14" stroke="#6aa332" stroke-width="3"/>
    <path d="M224 152c-20 3-35 15-44 37 23-2 37-15 44-37Z" stroke="#6aa332" stroke-width="4"/>
    <path d="M191 180c8-9 17-16 29-20" stroke="#6aa332" stroke-width="3"/>
    <path d="M221 108h51l8-23 8 46 8-23h51" stroke="#d7b64a" stroke-width="3"/>
  </g>
  <text x="222" y="91" fill="#151515" font-size="54" font-family="Brush Script MT, Segoe Script, cursive">Meridions</text>
  <text x="344" y="145" fill="#151515" font-size="48" font-family="Brush Script MT, Segoe Script, cursive">life</text>
  <text x="214" y="180" fill="#222" font-size="22" font-family="Inter, Arial, sans-serif">Medicina Tradicional Chinesa</text>
</svg>
